<svg width="265" height="20" viewBox="0 0 265 20" fill="none" xmlns="http://www.w3.org/2000/svg">
<path d="M140.293 0H137.176V17.1435H140.293V0Z" fill="#EC6822"/>
<path d="M146.527 17.1434H140.293V19.9999H146.527V17.1434Z" fill="#EC6822"/>
<path d="M149.645 14.2827H146.527V17.1392H149.645V14.2827Z" fill="#EC6822"/>
<path d="M155.884 2.8566H152.766V17.1393H155.884V2.8566Z" fill="#EC6822"/>
<path d="M165.235 2.8566H162.118V17.1393H165.235V2.8566Z" fill="#EC6822"/>
<path d="M162.118 0H155.884V2.85654H162.118V0Z" fill="#EC6822"/>
<path d="M162.118 17.1434H155.884V19.9999H162.118V17.1434Z" fill="#EC6822"/>
<path d="M171.47 2.8566H168.353V17.1393H171.47V2.8566Z" fill="#EC6822"/>
<path d="M177.704 0H171.47V2.85654H177.704V0Z" fill="#EC6822"/>
<path d="M180.821 2.8566H177.704V5.71314H180.821V2.8566Z" fill="#EC6822"/>
<path d="M177.704 17.1434H171.47V19.9999H177.704V17.1434Z" fill="#EC6822"/>
<path d="M180.821 11.4261H177.704V17.1392H180.821V11.4261Z" fill="#EC6822"/>
<path d="M177.704 9.99789H173.028V12.8544H177.704V9.99789Z" fill="#EC6822"/>
<path d="M190.178 2.8566H187.06V17.1393H190.178V2.8566Z" fill="#EC6822"/>
<path d="M193.29 0H183.939V2.85654H193.29V0Z" fill="#EC6822"/>
<path d="M193.29 17.1434H183.939V19.9999H193.29V17.1434Z" fill="#EC6822"/>
<path d="M199.529 2.8566H196.412V8.56967H199.529V2.8566Z" fill="#EC6822"/>
<path d="M205.764 0H199.529V2.85654H205.764V0Z" fill="#EC6822"/>
<path d="M208.881 2.8566H205.764V5.71314H208.881V2.8566Z" fill="#EC6822"/>
<path d="M205.764 8.56961H199.529V11.4261H205.764V8.56961Z" fill="#EC6822"/>
<path d="M208.881 11.4261H205.764V17.1392H208.881V11.4261Z" fill="#EC6822"/>
<path d="M205.764 17.1434H199.529V19.9999H205.764V17.1434Z" fill="#EC6822"/>
<path d="M199.529 14.2827H196.412V17.1392H199.529V14.2827Z" fill="#EC6822"/>
<path d="M218.233 2.8566H215.115V20.0001H218.233V2.8566Z" fill="#EC6822"/>
<path d="M221.35 0H211.998V2.85654H221.35V0Z" fill="#EC6822"/>
<path d="M230.706 2.8566H227.589V17.1393H230.706V2.8566Z" fill="#EC6822"/>
<path d="M233.823 0H224.472V2.85654H233.823V0Z" fill="#EC6822"/>
<path d="M233.823 17.1434H224.472V19.9999H233.823V17.1434Z" fill="#EC6822"/>
<path d="M240.058 2.8566H236.94V17.1393H240.058V2.8566Z" fill="#EC6822"/>
<path d="M246.292 0H240.058V2.85654H246.292V0Z" fill="#EC6822"/>
<path d="M249.409 2.8566H246.292V5.71314H249.409V2.8566Z" fill="#EC6822"/>
<path d="M246.292 17.1434H240.058V19.9999H246.292V17.1434Z" fill="#EC6822"/>
<path d="M249.409 14.2827H246.292V17.1392H249.409V14.2827Z" fill="#EC6822"/>
<path d="M255.644 2.8566H252.527V8.56967H255.644V2.8566Z" fill="#EC6822"/>
<path d="M261.883 0H255.648V2.85654H261.883V0Z" fill="#EC6822"/>
<path d="M265 2.8566H261.883V5.71314H265V2.8566Z" fill="#EC6822"/>
<path d="M261.883 8.56961H255.648V11.4261H261.883V8.56961Z" fill="#EC6822"/>
<path d="M265 11.4261H261.883V17.1392H265V11.4261Z" fill="#EC6822"/>
<path d="M261.883 17.1434H255.648V19.9999H261.883V17.1434Z" fill="#EC6822"/>
<path d="M255.644 14.2827H252.527V17.1392H255.644V14.2827Z" fill="#EC6822"/>
<path d="M3.11721 2.8566H0V17.1393H3.11721V2.8566Z" fill="#EC6822"/>
<path d="M9.35163 0H3.1172V2.85654H9.35163V0Z" fill="#EC6822"/>
<path d="M12.4688 2.8566H9.35161V5.71314H12.4688V2.8566Z" fill="#EC6822"/>
<path d="M9.35163 17.1434H3.1172V19.9999H9.35163V17.1434Z" fill="#EC6822"/>
<path d="M12.4688 14.2827H9.35161V17.1392H12.4688V14.2827Z" fill="#EC6822"/>
<path d="M18.7033 2.8566H15.5861V17.1393H18.7033V2.8566Z" fill="#EC6822"/>
<path d="M28.0595 2.8566H24.9423V17.1393H28.0595V2.8566Z" fill="#EC6822"/>
<path d="M24.9423 0H18.7079V2.85654H24.9423V0Z" fill="#EC6822"/>
<path d="M24.9423 17.1434H18.7079V19.9999H24.9423V17.1434Z" fill="#EC6822"/>
<path d="M34.294 2.8566H31.1768V17.1393H34.294V2.8566Z" fill="#EC6822"/>
<path d="M43.6456 2.8566H40.5284V17.1393H43.6456V2.8566Z" fill="#EC6822"/>
<path d="M40.5284 0H34.294V2.85654H40.5284V0Z" fill="#EC6822"/>
<path d="M40.5284 17.1434H34.294V19.9999H40.5284V17.1434Z" fill="#EC6822"/>
<path d="M49.88 0H46.7628V17.1435H49.88V0Z" fill="#EC6822"/>
<path d="M56.1144 17.1434H49.88V19.9999H56.1144V17.1434Z" fill="#EC6822"/>
<path d="M59.2363 14.2827H56.1191V17.1392H59.2363V14.2827Z" fill="#EC6822"/>
<path d="M71.7051 2.8566H68.5879V17.1393H71.7051V2.8566Z" fill="#EC6822"/>
<path d="M77.9395 0H71.7051V2.85654H77.9395V0Z" fill="#EC6822"/>
<path d="M81.0568 2.8566H77.9396V5.71314H81.0568V2.8566Z" fill="#EC6822"/>
<path d="M77.9395 17.1434H71.7051V19.9999H77.9395V17.1434Z" fill="#EC6822"/>
<path d="M81.0568 11.4261H77.9396V17.1392H81.0568V11.4261Z" fill="#EC6822"/>
<path d="M77.9395 9.99789H73.2637V12.8544H77.9395V9.99789Z" fill="#EC6822"/>
<path d="M87.2912 0H84.174V17.1435H87.2912V0Z" fill="#EC6822"/>
<path d="M96.6475 0H93.5302V17.1435H96.6475V0Z" fill="#EC6822"/>
<path d="M93.5302 17.1434H87.2958V19.9999H93.5302V17.1434Z" fill="#EC6822"/>
<path d="M102.882 0H99.7646V8.56961H102.882V0Z" fill="#EC6822"/>
<path d="M109.116 8.56961H102.882V11.4261H109.116V8.56961Z" fill="#EC6822"/>
<path d="M112.234 0H109.116V17.1435H112.234V0Z" fill="#EC6822"/>
<path d="M109.116 17.1434H102.882V19.9999H109.116V17.1434Z" fill="#EC6822"/>
<path d="M118.468 2.8566H115.351V8.56967H118.468V2.8566Z" fill="#EC6822"/>
<path d="M124.707 0H118.473V2.85654H124.707V0Z" fill="#EC6822"/>
<path d="M127.824 2.8566H124.707V5.71314H127.824V2.8566Z" fill="#EC6822"/>
<path d="M124.707 8.56961H118.473V11.4261H124.707V8.56961Z" fill="#EC6822"/>
<path d="M127.824 11.4261H124.707V17.1392H127.824V11.4261Z" fill="#EC6822"/>
<path d="M124.707 17.1434H118.473V19.9999H124.707V17.1434Z" fill="#EC6822"/>
<path d="M118.468 14.2827H115.351V17.1392H118.468V14.2827Z" fill="#EC6822"/>
</svg>
